<svg width="24px" height="24px" viewBox="0 0 24 24" version="1.1" xmlns="http://www.w3.org/2000/svg" xmlns:xlink="http://www.w3.org/1999/xlink">
    <defs>
        <linearGradient x1="124.462891%" y1="0%" x2="-39.4124349%" y2="111.181641%" id="linearGradient-1">
            <stop stop-color="#5A37FF" offset="0%"></stop>
            <stop stop-color="#E8406F" offset="100%"></stop>
        </linearGradient>
    </defs>
    <g id="calendar_ico" stroke="none" stroke-width="1" fill="none" fill-rule="evenodd">
        <rect id="Rectangle" fill="url(#linearGradient-1)" x="0" y="0" width="24" height="24"></rect>
        <path d="M18.5,4.54545455 L17.75,4.54545455 L17.75,3 L16.25,3 L16.25,4.54545455 L7.75,4.54545455 L7.75,3 L6.25,3 L6.25,4.54545455 L5.5,4.54545455 C4.675,4.54545455 4,5.24090909 4,6.09090909 L4,18.4545455 C4,19.3045455 4.675,20 5.5,20 L18.5,20 C19.325,20 20,19.3045455 20,18.4545455 L20,6.09090909 C20,5.24090909 19.325,4.54545455 18.5,4.54545455 Z M18.5,18.4545455 L5.5,18.4545455 L5.5,8.40909091 L18.5,8.40909091 L18.5,18.4545455 Z" id="Shape" fill="#FFFFFF" fill-rule="nonzero"></path>
    </g>
</svg>